<svg preserveAspectRatio="none" overflow="visible" style="display: block;" width="16" height="16" viewBox="0 0 16 16" fill="none" xmlns="http://www.w3.org/2000/svg">
<g id="Mattress Icons">
<path id="Vector" d="M7.74639 3.44721C7.82621 3.20153 8.17379 3.20153 8.25362 3.44721L9.13754 6.16765C9.17324 6.27752 9.27563 6.35191 9.39115 6.35191H12.2516C12.5099 6.35191 12.6173 6.68247 12.4083 6.83431L10.0942 8.51563C10.0007 8.58354 9.96162 8.7039 9.99732 8.81378L10.8812 11.5342C10.9611 11.7799 10.6799 11.9842 10.4709 11.8324L8.15674 10.151C8.06328 10.0831 7.93672 10.0831 7.84326 10.151L5.52912 11.8324C5.32013 11.9842 5.03893 11.7799 5.11876 11.5342L6.00268 8.81378C6.03838 8.7039 5.99927 8.58354 5.90581 8.51563L3.59167 6.83431C3.38268 6.68247 3.49009 6.35191 3.74841 6.35191H6.60885C6.72437 6.35191 6.82676 6.27752 6.86246 6.16765L7.74639 3.44721Z" fill="white"/>
</g>
</svg>
